<?xml version="1.0" encoding="UTF-8"?>
<!DOCTYPE svg PUBLIC "-//W3C//DTD SVG 1.1//EN" "http://www.w3.org/Graphics/SVG/1.1/DTD/svg11.dtd">
<!-- Creator: CorelDRAW 2017 -->
<svg xmlns="http://www.w3.org/2000/svg" xml:space="preserve" width="32px" height="32px" version="1.1" style="shape-rendering:geometricPrecision; text-rendering:geometricPrecision; image-rendering:optimizeQuality; fill-rule:evenodd; clip-rule:evenodd"
viewBox="0 0 136.58 136.58"
 xmlns:xlink="http://www.w3.org/1999/xlink">
 <defs>
  <style type="text/css">
   <![CDATA[
    .fil0 {fill:#2B2A29;fill-rule:nonzero}
   ]]>
  </style>
 </defs>
 <g id="Ebene_x0020_1">
  <metadata id="CorelCorpID_0Corel-Layer"/>
  <path class="fil0" d="M5.52 0c-3.01,0 -5.52,2.51 -5.52,5.52l0 125.53c0,3.01 2.51,5.53 5.52,5.53l125.53 0c3.02,0 5.53,-2.52 5.53,-5.53l0 -125.53c0,-3.01 -2.51,-5.52 -5.53,-5.52l-125.53 0zm2.51 8.03l120.51 0 0 120.51 -120.51 0 0 -120.51zm67.67 89.91c2.09,0 3.71,-1.62 3.71,-3.71 0,-2.08 -1.62,-3.7 -3.71,-3.7l-25.94 0 0 -30.12 18.53 -18.65 18.53 18.65 0 21.2c0,9.15 7.3,16.56 16.57,16.56 14.36,0 20.5,-13.67 20.5,-29.88 0,-30.7 -24.91,-55.6 -55.6,-55.6 -30.7,0 -55.6,24.9 -55.6,55.6 0,30.69 24.9,55.6 55.6,55.6 7.99,0 15.64,-1.63 22.7,-4.87 4.4,-2.08 1.51,-8.69 -3.01,-6.72 -5.91,2.55 -12.86,4.17 -19.69,4.17 -26.64,0 -48.19,-21.54 -48.19,-48.18 0,-26.64 21.55,-48.19 48.19,-48.19 26.64,0 48.18,21.55 48.18,48.19 0,13.32 -4.05,22.7 -12.97,22.7 -5.1,0 -9.27,-4.29 -9.27,-9.38l0 -22.82c0,-0.93 -0.46,-1.97 -1.04,-2.55l-22.24 -22.35c-0.81,-0.81 -1.73,-1.16 -2.66,-1.16 -1.04,0 -1.97,0.46 -2.67,1.16l-22.24 22.35c-0.57,0.58 -1.04,1.62 -1.04,2.55l0 35.44c0,2.09 1.62,3.71 3.71,3.71l29.65 0z"/>
 </g>
</svg>
