<?xml version="1.0" encoding="UTF-8"?>
<!DOCTYPE svg PUBLIC "-//W3C//DTD SVG 1.1//EN" "http://www.w3.org/Graphics/SVG/1.1/DTD/svg11.dtd">
<!-- Creator: CorelDRAW 2017 -->
<svg xmlns="http://www.w3.org/2000/svg" xml:space="preserve" width="32px" height="32px" version="1.1" style="shape-rendering:geometricPrecision; text-rendering:geometricPrecision; image-rendering:optimizeQuality; fill-rule:evenodd; clip-rule:evenodd"
viewBox="0 0 149.51 149.51"
 xmlns:xlink="http://www.w3.org/1999/xlink">
 <defs>
  <style type="text/css">
   <![CDATA[
    .fil0 {fill:#2B2A29;fill-rule:nonzero}
   ]]>
  </style>
 </defs>
 <g id="Ebene_x0020_1">
  <metadata id="CorelCorpID_0Corel-Layer"/>
  <path class="fil0" d="M6.05 0c-3.3,0 -6.05,2.75 -6.05,6.05l0 137.41c0,3.3 2.75,6.05 6.05,6.05l137.41 0c3.3,0 6.05,-2.75 6.05,-6.05l0 -137.41c0,-3.3 -2.75,-6.05 -6.05,-6.05l-137.41 0zm2.75 35.18l131.91 0 0 105.53 -131.91 0 0 -105.53zm110.2 75.71c2.48,0 4.4,-1.92 4.4,-4.39 0,-2.48 -1.92,-4.4 -4.4,-4.4 -2.75,0 -5.36,-0.14 -5.36,-0.14l0 -3.02c-0.27,-8.93 -4.53,-14.84 -9.62,-18.14l-9.2 -6.05c-0.96,-0.55 -2.48,-0.96 -3.99,-0.41l-4.53 2.2 -1.51 -6.73c-0.28,-1.24 -0.97,-2.2 -2.2,-3.03l-19.52 -12.78c-5.22,-3.43 -11.54,-4.94 -16.62,-4.94 -13.74,0 -20.48,11.4 -20.48,22.26 0,20.47 14.43,39.85 31.74,48.37 2.2,1.1 4.4,1.37 7.43,0.96l6.87 -0.96c-0.97,3.16 0.41,5.63 3.84,6.32 2.75,0.41 5.91,0.69 8.52,0.69 14.29,0 24.33,-6.87 27.62,-15.94 0,0 3.71,0.13 7.01,0.13zm-110.2 -102.1l131.91 0 0 17.59 -131.91 0 0 -17.59zm75.99 109.11c-1.24,0 -4.54,-0.13 -4.54,-0.13l0.28 -2.2c0.41,-3.85 -2.2,-5.77 -5.23,-5.36l-13.46 2.06c-15.39,-8.25 -27.07,-24.32 -27.07,-40.95 0,-7.83 3.98,-14.29 11.4,-14.29 3.85,0 7.15,1.23 11.96,4.26l18.55 11.95 2.2 10.31c0.41,2.2 3.16,3.71 5.49,2.75l7.29 -3.16 7.55 4.94c3.58,2.34 5.64,6.6 5.64,11.13l0 2.07c-20.06,-3.03 -41.23,-12.65 -53.46,-30.1 -0.68,-1.1 -2.19,-1.92 -3.71,-1.92 -2.47,0 -4.39,1.92 -4.39,4.39 0,0.83 0.41,1.93 0.96,2.75 12.5,17.87 34.49,29.96 58.26,33.4 -3.02,4.8 -8.11,8.1 -17.72,8.1z"/>
 </g>
</svg>
