<?xml version="1.0" encoding="UTF-8"?>
<!DOCTYPE svg PUBLIC "-//W3C//DTD SVG 1.1//EN" "http://www.w3.org/Graphics/SVG/1.1/DTD/svg11.dtd">
<!-- Creator: CorelDRAW 2017 -->
<svg xmlns="http://www.w3.org/2000/svg" xml:space="preserve" width="32px" height="32px" version="1.1" style="shape-rendering:geometricPrecision; text-rendering:geometricPrecision; image-rendering:optimizeQuality; fill-rule:evenodd; clip-rule:evenodd"
viewBox="0 0 59.2 59.2"
 xmlns:xlink="http://www.w3.org/1999/xlink">
 <defs>
  <style type="text/css">
   <![CDATA[
    .fil0 {fill:#2B2A29;fill-rule:nonzero}
   ]]>
  </style>
 </defs>
 <g id="Ebene_x0020_1">
  <metadata id="CorelCorpID_0Corel-Layer"/>
  <path class="fil0" d="M2.39 0c-1.3,0 -2.39,1.09 -2.39,2.39l0 54.42c0,1.3 1.09,2.39 2.39,2.39l54.42 0c1.3,0 2.39,-1.09 2.39,-2.39l0 -54.42c0,-1.3 -1.09,-2.39 -2.39,-2.39l-54.42 0zm1.09 13.93l52.24 0 0 41.79 -52.24 0 0 -41.79zm0 -10.45l52.24 0 0 6.97 -52.24 0 0 -6.97zm34.39 47.01c1.2,0 2.18,-0.98 2.18,-2.17l0 -14.37 4.79 0c1.19,0 2.17,-0.98 2.17,-2.17l0 -8.71c0,-1.2 -0.98,-2.18 -2.17,-2.18l-9.36 0 -1.15 -1.14c-0.32,-0.33 -0.87,-0.6 -1.36,-0.6l-6.74 0c-0.49,0 -1.04,0.27 -1.36,0.6l-1.15 1.14 -9.36 0c-1.19,0 -2.17,0.98 -2.17,2.18l0 8.71c0,1.19 0.98,2.17 2.17,2.17l4.79 0 0 14.37c0,1.19 0.98,2.17 2.18,2.17l16.54 0zm-1.31 -3.48l-13.92 0 0 -14.36c0,-1.2 -0.98,-2.18 -2.18,-2.18l-4.79 0 0 -6.09 6.58 0 6.04 6.04c0.33,0.32 0.82,0.54 1.31,0.54 0.49,0 0.98,-0.22 1.31,-0.54l6.04 -6.04 6.58 0 0 6.09 -4.79 0c-1.2,0 -2.18,0.98 -2.18,2.18l0 14.36zm-6.96 -20.19l-3.43 -3.42 0.76 -0.77 5.34 0 0.76 0.77 -3.43 3.42z"/>
 </g>
</svg>
