<?xml version="1.0" encoding="UTF-8"?>
<!DOCTYPE svg PUBLIC "-//W3C//DTD SVG 1.1//EN" "http://www.w3.org/Graphics/SVG/1.1/DTD/svg11.dtd">
<!-- Creator: CorelDRAW 2017 -->
<svg xmlns="http://www.w3.org/2000/svg" xml:space="preserve" width="32px" height="32px" version="1.1" style="shape-rendering:geometricPrecision; text-rendering:geometricPrecision; image-rendering:optimizeQuality; fill-rule:evenodd; clip-rule:evenodd"
viewBox="0 0 18.57 18.57"
 xmlns:xlink="http://www.w3.org/1999/xlink">
 <defs>
  <style type="text/css">
   <![CDATA[
    .fil0 {fill:#2B2A29;fill-rule:nonzero}
   ]]>
  </style>
 </defs>
 <g id="Ebene_x0020_1">
  <metadata id="CorelCorpID_0Corel-Layer"/>
  <path class="fil0" d="M0.75 0c-0.41,0 -0.75,0.34 -0.75,0.75l0 17.07c0,0.41 0.34,0.75 0.75,0.75l17.07 0c0.41,0 0.75,-0.34 0.75,-0.75l0 -17.07c0,-0.41 -0.34,-0.75 -0.75,-0.75l-17.07 0zm0.34 4.37l16.39 0 0 13.11 -16.39 0 0 -13.11zm0 -3.28l16.39 0 0 2.19 -16.39 0 0 -2.19zm8.62 12.09c0.67,0.92 2.14,2.27 2.82,2.06 0.73,-0.19 1.72,-1.98 1.55,-2.66 -0.19,-0.72 -2.06,-1.28 -3.21,-1.42 -0.08,-0.27 -0.22,-0.53 -0.42,-0.73 0.42,-0.96 0.59,-1.95 0.59,-2.89 0,-0.66 -0.56,-1 -1.75,-1 -1.2,0 -1.76,0.34 -1.76,1 0,0.94 0.17,1.93 0.59,2.89 -0.2,0.2 -0.34,0.46 -0.42,0.73 -1.15,0.14 -3.02,0.7 -3.21,1.42 -0.17,0.68 0.82,2.47 1.55,2.66 0.68,0.21 2.15,-1.14 2.82,-2.06 0.12,0.03 0.27,0.05 0.43,0.05 0.15,0 0.29,-0.02 0.42,-0.05zm-1.72 -0.58c-0.53,0.68 -1.2,1.21 -1.73,1.5 -0.32,-0.33 -0.56,-0.7 -0.66,-1.15 0.53,-0.3 1.3,-0.63 2.17,-0.73 0.05,0.14 0.13,0.26 0.22,0.38zm4.98 0.35c-0.1,0.45 -0.34,0.82 -0.66,1.15 -0.53,-0.29 -1.2,-0.82 -1.73,-1.5 0.09,-0.12 0.16,-0.24 0.22,-0.38 0.86,0.1 1.64,0.43 2.17,0.73zm-3.02 -5.24c0,0.62 -0.12,1.46 -0.44,2.26 -0.16,-0.02 -0.29,-0.02 -0.45,0 -0.34,-0.8 -0.44,-1.64 -0.44,-2.26 0.2,-0.05 0.46,-0.08 0.67,-0.08 0.2,0 0.46,0.03 0.66,0.08zm-0.07 3.88c0,0.32 -0.27,0.6 -0.59,0.6 -0.33,0 -0.6,-0.28 -0.6,-0.6 0,-0.33 0.27,-0.6 0.6,-0.6 0.32,0 0.59,0.27 0.59,0.6z"/>
 </g>
</svg>
