<?xml version="1.0" encoding="UTF-8"?>
<!DOCTYPE svg PUBLIC "-//W3C//DTD SVG 1.1//EN" "http://www.w3.org/Graphics/SVG/1.1/DTD/svg11.dtd">
<!-- Creator: CorelDRAW 2017 -->
<svg xmlns="http://www.w3.org/2000/svg" xml:space="preserve" width="32px" height="32px" version="1.1" style="shape-rendering:geometricPrecision; text-rendering:geometricPrecision; image-rendering:optimizeQuality; fill-rule:evenodd; clip-rule:evenodd"
viewBox="0 0 149.51 149.51"
 xmlns:xlink="http://www.w3.org/1999/xlink">
 <defs>
  <style type="text/css">
   <![CDATA[
    .fil0 {fill:#2B2A29;fill-rule:nonzero}
   ]]>
  </style>
 </defs>
 <g id="Ebene_x0020_1">
  <metadata id="CorelCorpID_0Corel-Layer"/>
  <path class="fil0" d="M6.05 0c-3.3,0 -6.05,2.75 -6.05,6.05l0 137.41c0,3.3 2.75,6.05 6.05,6.05l137.41 0c3.3,0 6.05,-2.75 6.05,-6.05l0 -137.41c0,-3.3 -2.75,-6.05 -6.05,-6.05l-137.41 0zm2.75 35.18l131.91 0 0 105.53 -131.91 0 0 -105.53zm0 -26.39l131.91 0 0 17.59 -131.91 0 0 -17.59zm60.18 48.24c0.83,-0.69 1.38,-1.93 1.38,-3.16 0,-2.48 -1.93,-4.4 -4.4,-4.4 -3.3,0 -4.4,3.57 -10.99,3.57 -7.29,0 -10.72,-6.04 -21.99,-6.04 -5.22,0 -10.31,1.78 -14.02,4.81 -0.82,0.68 -1.37,1.92 -1.37,3.16 0,2.47 1.92,4.39 4.4,4.39 3.3,0 4.39,-3.57 10.99,-3.57 7.28,0 10.72,6.05 21.99,6.05 5.22,0 10.3,-1.79 14.01,-4.81zm33.39 60.74c4.81,7.83 12.78,13.19 16.22,13.19 5.36,0 13.19,-10.72 13.19,-18.55 0,-3.03 -1.65,-4.54 -3.43,-5.64 -5.36,-3.16 -10.45,-4.67 -16.77,-4.95 -0.69,-2.19 -1.51,-3.71 -3.02,-5.22 2.88,-5.63 4.12,-10.85 4.12,-17.04 0,-2.06 -0.69,-3.71 -1.79,-4.81 -1.92,-1.92 -6.32,-3.16 -11.54,-3.16 -5.22,0 -9.62,1.24 -11.54,3.16 -1.1,1.1 -1.79,2.75 -1.79,4.81 0,6.19 1.24,11.41 4.13,17.04 -1.52,1.51 -2.34,3.03 -3.03,5.22 -6.32,0.28 -11.4,1.79 -16.76,4.95 -1.79,1.1 -3.44,2.61 -3.44,5.64 0,7.83 7.83,18.55 13.19,18.55 3.44,0 11.41,-5.36 16.22,-13.19 1.92,0.54 4.12,0.54 6.04,0zm-13.05 -4.54c-2.47,3.71 -5.77,6.6 -8.79,8.38 -1.93,-1.92 -3.99,-5.36 -4.54,-7.97 3.02,-1.78 7.15,-3.16 11.54,-3.43 0.42,1.1 1.1,2.2 1.79,3.02zm33.39 0.41c-0.55,2.61 -2.61,6.05 -4.53,7.97 -3.03,-1.78 -6.32,-4.67 -8.8,-8.38 0.69,-0.82 1.38,-1.92 1.79,-3.02 4.4,0.27 8.52,1.65 11.54,3.43zm-18.82 -32.7c0,3.57 -0.83,7.83 -2.75,11.82 -1.24,-0.14 -2.34,-0.14 -3.57,0 -1.93,-3.99 -2.75,-8.25 -2.75,-11.82 1.37,-0.41 3.16,-0.55 4.53,-0.55 1.38,0 3.16,0.14 4.54,0.55zm0 24.46c0,2.47 -2.06,4.53 -4.54,4.53 -2.47,0 -4.53,-2.06 -4.53,-4.53 0,-2.48 2.06,-4.54 4.53,-4.54 2.48,0 4.54,2.06 4.54,4.54zm-34.91 -30.1c0.83,-0.68 1.38,-1.92 1.38,-3.16 0,-2.47 -1.93,-4.39 -4.4,-4.39 -3.3,0 -4.4,3.57 -10.99,3.57 -7.29,0 -10.72,-6.05 -21.99,-6.05 -5.22,0 -10.31,1.79 -14.02,4.81 -0.82,0.69 -1.37,1.93 -1.37,3.16 0,2.48 1.92,4.4 4.4,4.4 3.3,0 4.39,-3.57 10.99,-3.57 7.28,0 10.72,6.04 21.99,6.04 5.22,0 10.3,-1.78 14.01,-4.81zm0 18.28c0.83,-0.69 1.38,-1.92 1.38,-3.16 0,-2.47 -1.93,-4.4 -4.4,-4.4 -3.3,0 -4.4,3.58 -10.99,3.58 -7.29,0 -10.72,-6.05 -21.99,-6.05 -5.22,0 -10.31,1.78 -14.02,4.81 -0.82,0.68 -1.37,1.92 -1.37,3.16 0,2.47 1.92,4.4 4.4,4.4 3.3,0 4.39,-3.58 10.99,-3.58 7.28,0 10.72,6.05 21.99,6.05 5.22,0 10.3,-1.79 14.01,-4.81z"/>
 </g>
</svg>
