<?xml version="1.0" encoding="UTF-8"?>
<!DOCTYPE svg PUBLIC "-//W3C//DTD SVG 1.1//EN" "http://www.w3.org/Graphics/SVG/1.1/DTD/svg11.dtd">
<!-- Creator: CorelDRAW 2017 -->
<svg xmlns="http://www.w3.org/2000/svg" xml:space="preserve" width="32px" height="32px" version="1.1" style="shape-rendering:geometricPrecision; text-rendering:geometricPrecision; image-rendering:optimizeQuality; fill-rule:evenodd; clip-rule:evenodd"
viewBox="0 0 24.71 24.71"
 xmlns:xlink="http://www.w3.org/1999/xlink">
 <defs>
  <style type="text/css">
   <![CDATA[
    .fil0 {fill:#2B2A29;fill-rule:nonzero}
   ]]>
  </style>
 </defs>
 <g id="Ebene_x0020_1">
  <metadata id="CorelCorpID_0Corel-Layer"/>
  <path class="fil0" d="M1 0c-0.55,0 -1,0.45 -1,1l0 22.71c0,0.54 0.45,1 1,1l22.71 0c0.54,0 1,-0.46 1,-1l0 -22.71c0,-0.55 -0.46,-1 -1,-1l-22.71 0zm0.45 5.81l21.8 0 0 17.44 -21.8 0 0 -17.44zm0 -4.36l21.8 0 0 2.91 -21.8 0 0 -2.91zm10.18 11.27c0,0.41 0.32,0.72 0.72,0.72 0.41,0 0.73,-0.31 0.73,-0.72l0 -3.64c0,-0.4 -0.32,-0.72 -0.73,-0.72 -0.4,0 -0.72,0.32 -0.72,0.72l0 3.64zm3.63 -4.36c-0.43,0 -0.82,0.36 -0.7,0.91l0.81 3.65c0.05,0.23 0.21,0.43 0.55,0.55 0.89,0.29 1.32,1.02 1.32,1.77 0,1.09 -0.87,1.84 -1.91,1.84 -0.34,0 -0.66,0.25 -0.7,0.57 -0.12,0.65 -0.89,1.77 -2.28,1.77 -1.38,0 -2.15,-1.12 -2.27,-1.77 -0.04,-0.32 -0.36,-0.57 -0.7,-0.57 -1.05,0 -1.91,-0.75 -1.91,-1.84 0,-0.75 0.43,-1.48 1.32,-1.77 0.34,-0.12 0.5,-0.32 0.54,-0.55l0.82 -3.65c0.11,-0.55 -0.27,-0.91 -0.7,-0.91 -0.37,0 -0.64,0.22 -0.73,0.61l-0.7 3.25c-1.07,0.43 -2,1.56 -2,3.02 0,1.72 1.29,3.04 2.81,3.25 0.34,0.93 1.53,2.38 3.52,2.38 2,0 3.18,-1.45 3.52,-2.38 1.53,-0.21 2.82,-1.53 2.82,-3.25 0,-1.46 -0.93,-2.59 -2,-3.02l-0.7 -3.25c-0.09,-0.39 -0.37,-0.61 -0.73,-0.61z"/>
 </g>
</svg>