<?xml version="1.0" encoding="UTF-8"?>
<!DOCTYPE svg PUBLIC "-//W3C//DTD SVG 1.1//EN" "http://www.w3.org/Graphics/SVG/1.1/DTD/svg11.dtd">
<!-- Creator: CorelDRAW 2017 -->
<svg xmlns="http://www.w3.org/2000/svg" xml:space="preserve" width="32px" height="32px" version="1.1" style="shape-rendering:geometricPrecision; text-rendering:geometricPrecision; image-rendering:optimizeQuality; fill-rule:evenodd; clip-rule:evenodd"
viewBox="0 0 59.2 59.2"
 xmlns:xlink="http://www.w3.org/1999/xlink">
 <defs>
  <style type="text/css">
   <![CDATA[
    .fil0 {fill:#2B2A29;fill-rule:nonzero}
   ]]>
  </style>
 </defs>
 <g id="Ebene_x0020_1">
  <metadata id="CorelCorpID_0Corel-Layer"/>
  <path class="fil0" d="M2.39 0c-1.3,0 -2.39,1.09 -2.39,2.39l0 54.42c0,1.3 1.09,2.39 2.39,2.39l54.42 0c1.3,0 2.39,-1.09 2.39,-2.39l0 -54.42c0,-1.3 -1.09,-2.39 -2.39,-2.39l-54.42 0zm1.09 13.93l52.24 0 0 41.79 -52.24 0 0 -41.79zm0 -10.45l52.24 0 0 6.97 -52.24 0 0 -6.97zm36.46 23.94c0,-3.04 -2.29,-5.76 -5.72,-5.76 -0.21,0 -0.54,0.05 -0.76,0.1 -1.19,-1.46 -3.1,-2.39 -5.44,-2.39 -2.34,0 -4.24,0.93 -5.44,2.39 -0.22,-0.05 -0.54,-0.1 -0.76,-0.1 -3.43,0 -5.71,2.72 -5.71,5.76l-0.66 0c-0.98,0 -1.74,0.76 -1.74,1.74l0 1.15c0,7.18 2.12,15.4 4.35,19.2 0.33,0.55 0.71,0.66 1.26,0.66l17.41 0c0.54,0 0.92,-0.11 1.25,-0.66 1.31,-2.23 2.5,-5.87 3.16,-9.03l1.41 0c3.59,0 6.53,-2.94 6.53,-6.53 0,-3.59 -2.94,-6.53 -6.53,-6.53l-2.61 0zm-1.09 3.49c-0.11,5.44 -1.63,12.56 -3.32,15.77l-15.02 0c-1.68,-3.21 -3.21,-10.33 -3.32,-15.77l21.66 0zm-19.26 -3.49c0,-1.08 0.81,-2.28 2.23,-2.28 0.65,0 0.92,0.22 1.47,0.22 0.6,0 1.09,-0.28 1.41,-0.71 0.76,-1.14 1.8,-1.8 3.32,-1.8 1.53,0 2.56,0.66 3.32,1.8 0.33,0.43 0.82,0.71 1.42,0.71 0.54,0 0.81,-0.22 1.46,-0.22 1.42,0 2.24,1.2 2.24,2.28l-16.87 0zm22.2 9.58c0.27,-1.85 0.49,-3.97 0.54,-6.09l0.22 0c1.69,0 3.05,1.36 3.05,3.04 0,1.69 -1.36,3.05 -3.05,3.05l-0.76 0z"/>
 </g>
</svg>
