<?xml version="1.0" encoding="UTF-8"?>
<!DOCTYPE svg PUBLIC "-//W3C//DTD SVG 1.1//EN" "http://www.w3.org/Graphics/SVG/1.1/DTD/svg11.dtd">
<!-- Creator: CorelDRAW 2017 -->
<svg xmlns="http://www.w3.org/2000/svg" xml:space="preserve" width="32px" height="32px" version="1.1" style="shape-rendering:geometricPrecision; text-rendering:geometricPrecision; image-rendering:optimizeQuality; fill-rule:evenodd; clip-rule:evenodd"
viewBox="0 0 24.71 21.8"
 xmlns:xlink="http://www.w3.org/1999/xlink">
 <defs>
  <style type="text/css">
   <![CDATA[
    .fil0 {fill:#2B2A29;fill-rule:nonzero}
   ]]>
  </style>
 </defs>
 <g id="Ebene_x0020_1">
  <metadata id="CorelCorpID_0Corel-Layer"/>
  <path class="fil0" d="M7.54 0c-0.55,0 -1,0.45 -1,1l0 15.71 -5.54 0c-0.55,0 -1,0.46 -1,1l0 3.09c0,0.55 0.45,1 1,1l22.71 0c0.54,0 1,-0.45 1,-1l0 -3.09c0,-0.54 -0.46,-1 -1,-1l-5.54 0 0 -15.71c0,-0.55 -0.46,-1 -1,-1l-9.63 0zm0.45 16.71l0 -15.26 8.72 0 0 15.26 -8.72 0zm-6.54 1.46l21.8 0 0 2.18 -21.8 0 0 -2.18z"/>
 </g>
</svg>
