<?xml version="1.0" encoding="UTF-8"?>
<!DOCTYPE svg PUBLIC "-//W3C//DTD SVG 1.1//EN" "http://www.w3.org/Graphics/SVG/1.1/DTD/svg11.dtd">
<!-- Creator: CorelDRAW 2017 -->
<svg xmlns="http://www.w3.org/2000/svg" xml:space="preserve" width="32px" height="32px" version="1.1" style="shape-rendering:geometricPrecision; text-rendering:geometricPrecision; image-rendering:optimizeQuality; fill-rule:evenodd; clip-rule:evenodd"
viewBox="0 0 15.61 15.61"
 xmlns:xlink="http://www.w3.org/1999/xlink">
 <defs>
  <style type="text/css">
   <![CDATA[
    .fil0 {fill:#2B2A29;fill-rule:nonzero}
   ]]>
  </style>
 </defs>
 <g id="Ebene_x0020_1">
  <metadata id="CorelCorpID_0Corel-Layer"/>
  <path class="fil0" d="M0.63 0c-0.34,0 -0.63,0.29 -0.63,0.63l0 14.35c0,0.34 0.29,0.63 0.63,0.63l14.35 0c0.35,0 0.63,-0.29 0.63,-0.63l0 -14.35c0,-0.34 -0.28,-0.63 -0.63,-0.63l-14.35 0zm0.29 0.92l13.77 0 0 13.77 -13.77 0 0 -13.77zm7.06 7.06l-0.17 0.34 -0.18 -0.34 -1.26 -2.21c-0.13,-0.23 -0.4,-0.3 -0.63,-0.17 -0.23,0.13 -0.3,0.4 -0.17,0.63l1.27 2.21 0.22 0.31 -0.39 -0.03 -2.54 0c-0.26,0 -0.46,0.21 -0.46,0.46 0,0.26 0.2,0.46 0.46,0.46l2.54 0 0.39 -0.03 -0.22 0.32 -1.27 2.21c-0.13,0.23 -0.06,0.5 0.17,0.63 0.23,0.13 0.5,0.06 0.63,-0.17l1.26 -2.21 0.18 -0.35 0.17 0.35 1.26 2.21c0.13,0.23 0.4,0.3 0.63,0.17 0.23,-0.13 0.3,-0.4 0.17,-0.63l-1.27 -2.21 -0.22 -0.32 0.39 0.03 2.54 0c0.26,0 0.46,-0.2 0.46,-0.46 0,-0.25 -0.2,-0.46 -0.46,-0.46l-2.54 0 -0.39 0.03 0.22 -0.31 1.27 -2.21c0.13,-0.23 0.06,-0.5 -0.17,-0.63 -0.23,-0.13 -0.5,-0.06 -0.63,0.17l-1.26 2.21zm-2.01 -4.77c0.26,0 0.46,-0.2 0.46,-0.45 0,-0.26 -0.2,-0.46 -0.46,-0.46l-2.76 0c-0.25,0 -0.45,0.2 -0.45,0.46 0,0.25 0.2,0.45 0.45,0.45l2.76 0z"/>
 </g>
</svg>
