<?xml version="1.0" encoding="UTF-8"?>
<!DOCTYPE svg PUBLIC "-//W3C//DTD SVG 1.1//EN" "http://www.w3.org/Graphics/SVG/1.1/DTD/svg11.dtd">
<!-- Creator: CorelDRAW 2017 -->
<svg xmlns="http://www.w3.org/2000/svg" xml:space="preserve" width="32px" height="32px" version="1.1" style="shape-rendering:geometricPrecision; text-rendering:geometricPrecision; image-rendering:optimizeQuality; fill-rule:evenodd; clip-rule:evenodd"
viewBox="0 0 27.14 27.14"
 xmlns:xlink="http://www.w3.org/1999/xlink">
 <defs>
  <style type="text/css">
   <![CDATA[
    .fil0 {fill:#2B2A29;fill-rule:nonzero}
   ]]>
  </style>
 </defs>
 <g id="Ebene_x0020_1">
  <metadata id="CorelCorpID_0Corel-Layer"/>
  <path class="fil0" d="M17.26 17.16l0 -2.4 1.02 -0.59 1.2 0.69c0.45,0.25 1.2,0.03 1.2,-0.69 0,-0.33 -0.18,-0.58 -0.4,-0.7l-1.2 -0.68 0 -1.42c0,-0.45 -0.35,-0.8 -0.8,-0.8 -0.45,0 -0.8,0.35 -0.8,0.8l0 1.4 -1.02 0.6 -2.09 -1.2 0 -1.2 1.14 -0.67c0.23,-0.12 0.45,-0.35 0.45,-0.72 0,-0.45 -0.35,-0.8 -0.8,-0.8 -0.17,0 -0.3,0.05 -0.47,0.15l-1.12 0.7 -1.12 -0.7c-0.18,-0.1 -0.3,-0.15 -0.48,-0.15 -0.45,0 -0.8,0.35 -0.8,0.8 0,0.37 0.23,0.6 0.45,0.72l1.15 0.67 0 1.2 -2.1 1.2 -1.02 -0.6 0 -1.4c0,-0.45 -0.35,-0.8 -0.8,-0.8 -0.44,0 -0.79,0.35 -0.79,0.8l0 1.42 -1.2 0.68c-0.23,0.12 -0.4,0.37 -0.4,0.7 0,0.72 0.75,0.94 1.2,0.69l1.19 -0.69 1.03 0.59 0 2.4 -1.03 0.6 -1.19 -0.7c-0.45,-0.25 -1.2,-0.03 -1.2,0.7 0,0.32 0.17,0.57 0.4,0.7l1.2 0.67 0 1.42c0,0.45 0.35,0.8 0.79,0.8 0.45,0 0.8,-0.35 0.8,-0.8l0 -1.4 1.02 -0.59 2.1 1.19 0 1.2 -1.15 0.67c-0.22,0.13 -0.45,0.35 -0.45,0.73 0,0.45 0.35,0.79 0.8,0.79 0.18,0 0.3,-0.05 0.48,-0.14l1.12 -0.7 1.12 0.7c0.17,0.09 0.3,0.14 0.47,0.14 0.45,0 0.8,-0.34 0.8,-0.79 0,-0.38 -0.22,-0.6 -0.45,-0.73l-1.14 -0.67 0 -1.2 2.09 -1.19 1.02 0.59 0 1.4c0,0.45 0.35,0.8 0.8,0.8 0.45,0 0.8,-0.35 0.8,-0.8l0 -1.42 1.2 -0.67c0.22,-0.13 0.4,-0.38 0.4,-0.7 0,-0.73 -0.75,-0.95 -1.2,-0.7l-1.2 0.7 -1.02 -0.6zm-1.6 0.02l-2.09 1.2 -2.1 -1.2 0 -2.44 2.1 -1.2 2.09 1.2 0 2.44zm-14.56 -17.18c-0.6,0 -1.1,0.5 -1.1,1.1l0 24.94c0,0.6 0.5,1.1 1.1,1.1l24.94 0c0.6,0 1.1,-0.5 1.1,-1.1l0 -24.94c0,-0.6 -0.5,-1.1 -1.1,-1.1l-24.94 0zm0.5 1.6l23.94 0 0 23.94 -23.94 0 0 -23.94zm8.78 3.99c0.44,0 0.79,-0.35 0.79,-0.8 0,-0.45 -0.35,-0.8 -0.79,-0.8l-4.79 0c-0.45,0 -0.8,0.35 -0.8,0.8 0,0.45 0.35,0.8 0.8,0.8l4.79 0z"/>
 </g>
</svg>
