<?xml version="1.0" encoding="UTF-8"?>
<!DOCTYPE svg PUBLIC "-//W3C//DTD SVG 1.1//EN" "http://www.w3.org/Graphics/SVG/1.1/DTD/svg11.dtd">
<!-- Creator: CorelDRAW 2017 -->
<svg xmlns="http://www.w3.org/2000/svg" xml:space="preserve" width="32px" height="32px" version="1.1" style="shape-rendering:geometricPrecision; text-rendering:geometricPrecision; image-rendering:optimizeQuality; fill-rule:evenodd; clip-rule:evenodd"
viewBox="0 0 18.57 18.57"
 xmlns:xlink="http://www.w3.org/1999/xlink">
 <defs>
  <style type="text/css">
   <![CDATA[
    .fil0 {fill:#2B2A29;fill-rule:nonzero}
   ]]>
  </style>
 </defs>
 <g id="Ebene_x0020_1">
  <metadata id="CorelCorpID_0Corel-Layer"/>
  <path class="fil0" d="M0.75 0c-0.41,0 -0.75,0.34 -0.75,0.75l0 17.07c0,0.41 0.34,0.75 0.75,0.75l17.07 0c0.41,0 0.75,-0.34 0.75,-0.75l0 -17.07c0,-0.41 -0.34,-0.75 -0.75,-0.75l-17.07 0zm0.34 1.09l16.39 0 0 16.39 -16.39 0 0 -16.39zm6.01 2.73c0.31,0 0.55,-0.24 0.55,-0.54 0,-0.31 -0.24,-0.55 -0.55,-0.55l-3.28 0c-0.3,0 -0.54,0.24 -0.54,0.55 0,0.3 0.24,0.54 0.54,0.54l3.28 0zm-1.28 9.46c0.19,0.31 0.51,0.37 0.77,0.22 0.27,-0.15 0.36,-0.46 0.19,-0.77l-0.55 -0.92 -0.32 -0.41 0.54 0.07 1.04 0c0.36,0 0.58,-0.24 0.58,-0.55 0,-0.3 -0.22,-0.54 -0.58,-0.54l-1.06 0 -0.52 0.07 0.32 -0.45 0.53 -0.89c0.19,-0.32 0.08,-0.63 -0.19,-0.78 -0.25,-0.15 -0.58,-0.07 -0.75,0.24l-0.55 0.92 -0.2 0.48 -0.19 -0.48 -0.51 -0.92c-0.19,-0.31 -0.51,-0.38 -0.77,-0.22 -0.27,0.15 -0.36,0.46 -0.19,0.76l0.53 0.93 0.31 0.41 -0.51 -0.07 -1.06 0c-0.36,0 -0.58,0.24 -0.58,0.54 0,0.31 0.22,0.55 0.58,0.55l1.06 0 0.51 -0.07 -0.31 0.43 -0.53 0.9c-0.18,0.33 -0.08,0.63 0.19,0.79 0.26,0.15 0.58,0.07 0.75,-0.24l0.55 -0.92 0.19 -0.45 0.2 0.46 0.53 0.91zm4.73 -1.74l-0.41 0.24 -0.53 -0.31c-0.31,-0.17 -0.79,0 -0.79,0.44 0,0.26 0.16,0.4 0.29,0.46l0.55 0.29 -0.02 0.67c0,0.29 0.23,0.51 0.52,0.51 0.29,0 0.51,-0.22 0.51,-0.51l0 -0.63 0.41 -0.24 1.06 0.61 0 0.45 -0.5 0.31c-0.15,0.08 -0.31,0.23 -0.31,0.47 0,0.29 0.23,0.52 0.5,0.52 0.13,0 0.25,-0.06 0.36,-0.12l0.47 -0.31 0.48 0.31c0.1,0.06 0.22,0.12 0.36,0.12 0.27,0 0.5,-0.23 0.5,-0.52 0,-0.24 -0.16,-0.39 -0.31,-0.47l-0.5 -0.31 0 -0.45 1.06 -0.61 0.41 0.24 0 0.63c0,0.29 0.22,0.51 0.51,0.51 0.29,0 0.52,-0.22 0.52,-0.51l-0.02 -0.67 0.54 -0.29c0.14,-0.06 0.29,-0.2 0.29,-0.46 0,-0.44 -0.47,-0.61 -0.78,-0.44l-0.53 0.31 -0.41 -0.24 0 -1.23 0.41 -0.24 0.53 0.31c0.31,0.17 0.78,0 0.78,-0.45 0,-0.25 -0.15,-0.39 -0.29,-0.46l-0.54 -0.29 0.02 -0.66c0,-0.29 -0.23,-0.52 -0.52,-0.52 -0.29,0 -0.51,0.23 -0.51,0.52l0 0.63 -0.41 0.24 -1.06 -0.62 0 -0.44 0.5 -0.31c0.15,-0.08 0.31,-0.24 0.31,-0.48 0,-0.29 -0.23,-0.51 -0.5,-0.51 -0.14,0 -0.26,0.05 -0.36,0.12l-0.48 0.31 -0.47 -0.31c-0.11,-0.07 -0.23,-0.12 -0.36,-0.12 -0.27,0 -0.5,0.22 -0.5,0.51 0,0.24 0.16,0.4 0.31,0.48l0.5 0.31 0 0.44 -1.06 0.62 -0.41 -0.24 0 -0.63c0,-0.29 -0.22,-0.52 -0.51,-0.52 -0.29,0 -0.52,0.23 -0.52,0.52l0.02 0.66 -0.55 0.29c-0.13,0.07 -0.29,0.21 -0.29,0.46 0,0.45 0.48,0.62 0.79,0.45l0.53 -0.31 0.41 0.24 0 1.23zm3.16 0l-1.05 0.6 -1.04 -0.6 0 -1.23 1.04 -0.6 1.05 0.6 0 1.23z"/>
 </g>
</svg>
