<?xml version="1.0" encoding="UTF-8"?>
<!DOCTYPE svg PUBLIC "-//W3C//DTD SVG 1.1//EN" "http://www.w3.org/Graphics/SVG/1.1/DTD/svg11.dtd">
<!-- Creator: CorelDRAW 2017 -->
<svg xmlns="http://www.w3.org/2000/svg" xml:space="preserve" width="32px" height="32px" version="1.1" style="shape-rendering:geometricPrecision; text-rendering:geometricPrecision; image-rendering:optimizeQuality; fill-rule:evenodd; clip-rule:evenodd"
viewBox="0 0 43.01 43.01"
 xmlns:xlink="http://www.w3.org/1999/xlink">
 <defs>
  <style type="text/css">
   <![CDATA[
    .fil0 {fill:#2B2A29;fill-rule:nonzero}
   ]]>
  </style>
 </defs>
 <g id="Ebene_x0020_1">
  <metadata id="CorelCorpID_0Corel-Layer"/>
  <path class="fil0" d="M23.4 17.39c0.63,-0.63 1.62,-0.63 2.21,0 0.64,0.59 0.6,1.58 0,2.22l-11.22 11.26c-0.83,-0.67 -1.54,-1.42 -2.22,-2.25l11.23 -11.23zm-17.27 -0.63c-2.22,0.12 -4.27,-0.47 -4.83,-0.47 -0.83,0 -1.3,0.83 -1.3,1.77 0,1.07 0.47,1.62 1.38,1.62 1.47,0 3.28,-0.11 4.67,-0.39 0.39,9.56 8.1,17.27 17.67,17.67 -0.28,1.38 -0.4,3.2 -0.4,4.66 0,0.91 0.55,1.39 1.62,1.39 0.95,0 1.78,-0.48 1.78,-1.31 0,-0.55 -0.59,-2.57 -0.47,-4.78 9.4,-0.87 16.76,-8.82 16.76,-18.42 0,-10.24 -8.27,-18.5 -18.5,-18.5 -9.61,0 -17.51,7.35 -18.38,16.76zm4.58 9.76c-1.38,-2.37 -2.17,-5.1 -2.17,-8.02 0,-8.82 7.15,-15.97 15.97,-15.97 8.81,0 15.97,7.15 15.97,15.97 0,8.81 -7.16,15.97 -15.97,15.97 -2.93,0 -5.66,-0.79 -7.99,-2.14l10.91 -10.95c1.58,-1.58 1.58,-4.19 -0.04,-5.81 -1.58,-1.58 -4.19,-1.58 -5.81,0.04l-10.87 10.91z"/>
 </g>
</svg>