<?xml version="1.0" encoding="UTF-8"?>
<!DOCTYPE svg PUBLIC "-//W3C//DTD SVG 1.1//EN" "http://www.w3.org/Graphics/SVG/1.1/DTD/svg11.dtd">
<!-- Creator: CorelDRAW 2017 -->
<svg xmlns="http://www.w3.org/2000/svg" xml:space="preserve" width="32px" height="32px" version="1.1" style="shape-rendering:geometricPrecision; text-rendering:geometricPrecision; image-rendering:optimizeQuality; fill-rule:evenodd; clip-rule:evenodd"
viewBox="0 0 349.97 349.97"
 xmlns:xlink="http://www.w3.org/1999/xlink">
 <defs>
  <style type="text/css">
   <![CDATA[
    .fil0 {fill:#2B2A29;fill-rule:nonzero}
   ]]>
  </style>
 </defs>
 <g id="Ebene_x0020_1">
  <metadata id="CorelCorpID_0Corel-Layer"/>
  <path class="fil0" d="M14.15 0c-7.72,0 -14.15,6.43 -14.15,14.15l0 321.66c0,7.72 6.43,14.16 14.15,14.16l321.67 0c7.72,0 14.15,-6.44 14.15,-14.16l0 -321.66c0,-7.72 -6.43,-14.15 -14.15,-14.15l-321.67 0zm243.18 308.79c5.79,0 10.29,-4.5 10.29,-10.29 0,-5.79 -4.5,-10.29 -10.29,-10.29l-12.22 0c0,-7.4 -0.65,-14.16 -2.9,-20.59l25.41 0c5.79,0 10.3,-4.5 10.3,-10.29l0 -82.35 20.58 0c5.79,0 10.3,-4.5 10.3,-10.29l0 -51.47c0,-5.79 -4.51,-10.29 -10.3,-10.29l-164.69 0c-5.79,0 -10.29,4.5 -10.29,10.29l0 51.47c0,5.79 4.5,10.29 10.29,10.29l20.59 0 0 30.24c-35.38,-16.73 -48.25,-19.94 -64.01,-19.94 -32.17,0 -49.22,19.94 -49.22,49.21 0,27.98 21.23,69.8 60.15,94.89l-80.73 0 0 -247.03 308.79 0 0 247.03 -99.07 0c5.47,-6.11 9.33,-12.87 12.22,-20.59l14.8 0zm-236.74 -288.2l308.79 0 0 41.17 -308.79 0 0 -41.17zm211.01 102.93c0,8.36 -7.08,15.44 -15.44,15.44 -8.37,0 -15.44,-7.08 -15.44,-15.44l30.88 0zm56.61 30.88l-20.59 0c-5.79,0 -10.29,4.5 -10.29,10.29l0 82.35 -29.59 0c-11.9,-9.98 -24.77,-18.02 -52.76,-31.85l0 -50.5c0,-5.79 -4.5,-10.29 -10.29,-10.29l-20.59 0 0 -30.88 36.03 0c0,19.94 16.08,36.02 36.03,36.02 19.94,0 36.02,-16.08 36.02,-36.02l36.03 0 0 30.88zm-116.76 174.98c-70.13,0 -109.69,-64.33 -109.69,-94.89 0,-18.66 9.33,-28.63 28.63,-28.63 14.15,0 27.66,4.18 74.94,27.67 54.69,27.01 59.19,35.06 59.19,54.68 -48.25,-4.51 -92.96,-18.98 -123.84,-57.9 -1.93,-2.57 -4.82,-3.86 -8.04,-3.86 -5.79,0 -10.29,4.5 -10.29,10.29 0,2.58 0.96,4.83 2.25,6.44 31.52,40.2 79.77,60.15 135.74,65.29 -10.94,17.69 -29.92,20.91 -48.89,20.91z"/>
 </g>
</svg>