<?xml version="1.0" encoding="UTF-8"?>
<!DOCTYPE svg PUBLIC "-//W3C//DTD SVG 1.1//EN" "http://www.w3.org/Graphics/SVG/1.1/DTD/svg11.dtd">
<!-- Creator: CorelDRAW 2017 -->
<svg xmlns="http://www.w3.org/2000/svg" xml:space="preserve" width="32px" height="32px" version="1.1" style="shape-rendering:geometricPrecision; text-rendering:geometricPrecision; image-rendering:optimizeQuality; fill-rule:evenodd; clip-rule:evenodd"
viewBox="0 0 18.57 18.57"
 xmlns:xlink="http://www.w3.org/1999/xlink">
 <defs>
  <style type="text/css">
   <![CDATA[
    .fil0 {fill:#2B2A29;fill-rule:nonzero}
   ]]>
  </style>
 </defs>
 <g id="Ebene_x0020_1">
  <metadata id="CorelCorpID_0Corel-Layer"/>
  <path class="fil0" d="M0.75 0c-0.41,0 -0.75,0.34 -0.75,0.75l0 17.07c0,0.41 0.34,0.75 0.75,0.75l17.07 0c0.41,0 0.75,-0.34 0.75,-0.75l0 -17.07c0,-0.41 -0.34,-0.75 -0.75,-0.75l-17.07 0zm0.34 1.09l16.39 0 0 16.39 -16.39 0 0 -16.39zm14.75 3.28c0.31,0 0.55,-0.24 0.55,-0.55 0,-0.3 -0.24,-0.54 -0.55,-0.54l-13.11 0c-0.31,0 -0.55,0.24 -0.55,0.54 0,0.31 0.24,0.55 0.55,0.55l13.11 0zm0 9.28c0.31,0 0.55,-0.23 0.55,-0.54 0,-0.31 -0.24,-0.55 -0.55,-0.55l-1.33 0c-0.29,0 -0.57,0.12 -0.75,0.31l-1.33 1.33 -6.29 0 -1.33 -1.33c-0.18,-0.19 -0.46,-0.31 -0.75,-0.31l-1.33 0c-0.31,0 -0.55,0.24 -0.55,0.55 0,0.31 0.24,0.54 0.55,0.54l1.33 0 1.33 1.34c0.19,0.18 0.46,0.3 0.75,0.3l6.29 0c0.29,0 0.56,-0.12 0.75,-0.3l1.33 -1.34 1.33 0zm-10.11 -1.63c0,0.3 0.24,0.54 0.55,0.54 0.15,0 0.31,-0.07 0.39,-0.17 0.36,-0.44 0.7,-1.24 0.7,-1.86 0,-1.47 -1.09,-2 -1.09,-3.04 0,-0.65 0.55,-1.07 0.55,-1.48 0,-0.31 -0.24,-0.55 -0.55,-0.55 -0.15,0 -0.31,0.07 -0.39,0.17 -0.36,0.45 -0.7,1.25 -0.7,1.86 0,1.47 1.09,2 1.09,3.04 0,0.65 -0.55,1.08 -0.55,1.49zm6.01 0c0,0.3 0.24,0.54 0.55,0.54 0.15,0 0.31,-0.07 0.39,-0.17 0.36,-0.44 0.7,-1.24 0.7,-1.86 0,-1.47 -1.09,-2 -1.09,-3.04 0,-0.65 0.55,-1.07 0.55,-1.48 0,-0.31 -0.24,-0.55 -0.55,-0.55 -0.15,0 -0.31,0.07 -0.39,0.17 -0.36,0.45 -0.7,1.25 -0.7,1.86 0,1.47 1.09,2 1.09,3.04 0,0.65 -0.55,1.08 -0.55,1.49zm-3 0c0,0.3 0.24,0.54 0.55,0.54 0.15,0 0.3,-0.07 0.39,-0.17 0.36,-0.44 0.7,-1.24 0.7,-1.86 0,-1.47 -1.09,-2 -1.09,-3.04 0,-0.65 0.54,-1.07 0.54,-1.48 0,-0.31 -0.24,-0.55 -0.54,-0.55 -0.16,0 -0.31,0.07 -0.4,0.17 -0.36,0.45 -0.7,1.25 -0.7,1.86 0,1.47 1.1,2 1.1,3.04 0,0.65 -0.55,1.08 -0.55,1.49z"/>
 </g>
</svg>
