<?xml version="1.0" encoding="UTF-8"?>
<!DOCTYPE svg PUBLIC "-//W3C//DTD SVG 1.1//EN" "http://www.w3.org/Graphics/SVG/1.1/DTD/svg11.dtd">
<!-- Creator: CorelDRAW 2017 -->
<svg xmlns="http://www.w3.org/2000/svg" xml:space="preserve" width="32px" height="32px" version="1.1" style="shape-rendering:geometricPrecision; text-rendering:geometricPrecision; image-rendering:optimizeQuality; fill-rule:evenodd; clip-rule:evenodd"
viewBox="0 0 15.61 15.61"
 xmlns:xlink="http://www.w3.org/1999/xlink">
 <defs>
  <style type="text/css">
   <![CDATA[
    .fil0 {fill:#2B2A29;fill-rule:nonzero}
   ]]>
  </style>
 </defs>
 <g id="Ebene_x0020_1">
  <metadata id="CorelCorpID_0Corel-Layer"/>
  <path class="fil0" d="M0.63 0c-0.34,0 -0.63,0.29 -0.63,0.63l0 14.35c0,0.34 0.29,0.63 0.63,0.63l14.35 0c0.35,0 0.63,-0.29 0.63,-0.63l0 -14.35c0,-0.34 -0.28,-0.63 -0.63,-0.63l-14.35 0zm0.29 0.92l13.77 0 0 13.77 -13.77 0 0 -13.77zm1.03 3.56c0,1.4 1.14,2.54 2.53,2.54 1.39,0 2.52,-1.14 2.52,-2.54 0,-1.39 -1.13,-2.53 -2.52,-2.53 -1.39,0 -2.53,1.14 -2.53,2.53zm0.92 0c0,-0.89 0.72,-1.61 1.61,-1.61 0.89,0 1.6,0.72 1.6,1.61 0,0.9 -0.71,1.62 -1.6,1.62 -0.89,0 -1.61,-0.72 -1.61,-1.62zm5.74 0c0,1.4 1.13,2.54 2.53,2.54 1.39,0 2.52,-1.14 2.52,-2.54 0,-1.39 -1.13,-2.53 -2.52,-2.53 -1.4,0 -2.53,1.14 -2.53,2.53zm0.92 0c0,-0.89 0.72,-1.61 1.61,-1.61 0.88,0 1.6,0.72 1.6,1.61 0,0.9 -0.72,1.62 -1.6,1.62 -0.89,0 -1.61,-0.72 -1.61,-1.62zm-7.58 6.66c0,1.39 1.14,2.52 2.53,2.52 1.39,0 2.52,-1.13 2.52,-2.52 0,-1.4 -1.13,-2.53 -2.52,-2.53 -1.39,0 -2.53,1.13 -2.53,2.53zm0.92 0c0,-0.89 0.72,-1.61 1.61,-1.61 0.89,0 1.6,0.72 1.6,1.61 0,0.88 -0.71,1.6 -1.6,1.6 -0.89,0 -1.61,-0.72 -1.61,-1.6zm5.74 0c0,1.39 1.13,2.52 2.53,2.52 1.39,0 2.52,-1.13 2.52,-2.52 0,-1.4 -1.13,-2.53 -2.52,-2.53 -1.4,0 -2.53,1.13 -2.53,2.53zm0.92 0c0,-0.89 0.72,-1.61 1.61,-1.61 0.88,0 1.6,0.72 1.6,1.61 0,0.88 -0.72,1.6 -1.6,1.6 -0.89,0 -1.61,-0.72 -1.61,-1.6z"/>
 </g>
</svg>
