<?xml version="1.0" encoding="UTF-8"?>
<!DOCTYPE svg PUBLIC "-//W3C//DTD SVG 1.1//EN" "http://www.w3.org/Graphics/SVG/1.1/DTD/svg11.dtd">
<!-- Creator: CorelDRAW 2017 -->
<svg xmlns="http://www.w3.org/2000/svg" xml:space="preserve" width="32px" height="32px" version="1.1" style="shape-rendering:geometricPrecision; text-rendering:geometricPrecision; image-rendering:optimizeQuality; fill-rule:evenodd; clip-rule:evenodd"
viewBox="0 0 32.12 32.12"
 xmlns:xlink="http://www.w3.org/1999/xlink">
 <defs>
  <style type="text/css">
   <![CDATA[
    .fil0 {fill:#2B2A29;fill-rule:nonzero}
   ]]>
  </style>
 </defs>
 <g id="Ebene_x0020_1">
  <metadata id="CorelCorpID_0Corel-Layer"/>
  <path class="fil0" d="M1.3 0c-0.71,0 -1.3,0.59 -1.3,1.3l0 29.52c0,0.71 0.59,1.3 1.3,1.3l29.52 0c0.71,0 1.3,-0.59 1.3,-1.3l0 -29.52c0,-0.71 -0.59,-1.3 -1.3,-1.3l-29.52 0zm0.59 7.56l28.34 0 0 22.67 -28.34 0 0 -22.67zm0 -5.67l28.34 0 0 3.78 -28.34 0 0 -3.78zm9.03 17.36c0.24,0.41 0.41,0.88 0.41,1.5 0,1.57 -1.26,2.86 -2.83,2.86 -1.56,0 -2.83,-1.29 -2.83,-2.86 0,-0.62 0.17,-1.09 0.41,-1.5l2.42 -4.2 2.42 4.2zm-6.4 -1.07c-0.42,0.74 -0.74,1.6 -0.74,2.57 0,2.6 2.12,4.72 4.72,4.72 2.6,0 4.72,-2.12 4.72,-4.72 0,-0.97 -0.32,-1.83 -0.73,-2.57l-3.16 -5.49c-0.15,-0.26 -0.44,-0.47 -0.83,-0.47 -0.38,0 -0.68,0.21 -0.83,0.47l-3.15 5.49zm17.21 7.32c1.68,0 3.12,-1.03 3.71,-2.51 1.66,-0.26 2.9,-1.71 2.9,-3.42 0,-1.27 -0.68,-2.33 -1.63,-2.95l-0.5 -3.54c-0.09,-0.45 -0.41,-0.8 -0.94,-0.8 -0.68,0 -1.04,0.59 -0.95,1.12l0.62 4.04c0.06,0.3 0.24,0.51 0.47,0.62 0.74,0.33 1.04,0.95 1.04,1.51 0,0.89 -0.71,1.59 -1.6,1.59l-0.11 0c-0.62,0 -0.89,0.51 -0.95,0.8 -0.21,0.95 -1.03,1.65 -2.06,1.65 -1.04,0 -1.86,-0.7 -2.07,-1.65 -0.06,-0.29 -0.33,-0.8 -0.95,-0.8l-0.11 0c-0.89,0 -1.6,-0.7 -1.6,-1.59 0,-0.56 0.3,-1.18 1.04,-1.51 0.23,-0.11 0.41,-0.32 0.47,-0.62l0.62 -4.04c0.09,-0.53 -0.27,-1.12 -0.95,-1.12 -0.53,0 -0.85,0.35 -0.94,0.8l-0.5 3.54c-0.95,0.62 -1.63,1.68 -1.63,2.95 0,1.71 1.24,3.16 2.9,3.42 0.59,1.48 2.03,2.51 3.72,2.51zm-0.95 -8.5c0,0.53 0.41,0.95 0.95,0.95 0.56,0 0.94,-0.45 0.94,-0.95l0 -3.78c0,-0.53 -0.41,-0.94 -0.94,-0.94 -0.57,0 -0.95,0.44 -0.95,0.94l0 3.78z"/>
 </g>
</svg>
