<?xml version="1.0" encoding="UTF-8"?>
<!DOCTYPE svg PUBLIC "-//W3C//DTD SVG 1.1//EN" "http://www.w3.org/Graphics/SVG/1.1/DTD/svg11.dtd">
<!-- Creator: CorelDRAW 2017 -->
<svg xmlns="http://www.w3.org/2000/svg" xml:space="preserve" width="32px" height="32px" version="1.1" style="shape-rendering:geometricPrecision; text-rendering:geometricPrecision; image-rendering:optimizeQuality; fill-rule:evenodd; clip-rule:evenodd"
viewBox="0 0 20.77 20.77"
 xmlns:xlink="http://www.w3.org/1999/xlink">
 <defs>
  <style type="text/css">
   <![CDATA[
    .fil0 {fill:#2B2A29;fill-rule:nonzero}
   ]]>
  </style>
 </defs>
 <g id="Ebene_x0020_1">
  <metadata id="CorelCorpID_0Corel-Layer"/>
  <path class="fil0" d="M0.84 0c-0.46,0 -0.84,0.38 -0.84,0.84l0 19.09c0,0.46 0.38,0.84 0.84,0.84l19.09 0c0.46,0 0.84,-0.38 0.84,-0.84l0 -19.09c0,-0.46 -0.38,-0.84 -0.84,-0.84l-19.09 0zm0.38 1.22l18.33 0 0 18.33 -18.33 0 0 -18.33zm6.72 3.06c0.35,0 0.61,-0.27 0.61,-0.61 0,-0.35 -0.26,-0.61 -0.61,-0.61l-3.66 0c-0.35,0 -0.61,0.26 -0.61,0.61 0,0.34 0.26,0.61 0.61,0.61l3.66 0zm9.17 12.52c0,0.18 -0.13,0.31 -0.31,0.31l-6.18 0c-1.53,0 -2.22,-1.22 -4.07,-1.22l-0.88 0c-0.55,0 -0.8,0.3 -0.92,0.3l-1.08 0 0 -1.83 1.08 0c0.12,0 0.37,0.3 0.92,0.3l0.88 0c1.85,0 2.54,-1.22 4.07,-1.22l6.18 0c0.18,0 0.31,0.14 0.31,0.31l0 3.05zm-0.61 -4.58l-5.88 0c-2.01,0 -2.75,1.22 -4.07,1.22l-0.88 0c-0.11,0 -0.34,-0.3 -0.92,-0.3l-0.47 0 0 -1.42 0.97 0c0.12,0 0.36,0.31 0.92,0.31l0.68 0c1.86,0 2.54,-1.22 4.07,-1.22l5.27 0c0.17,0 0.31,0.13 0.31,0.3l0 1.11zm1.22 -1.11c0,-0.84 -0.69,-1.52 -1.53,-1.52l-5.27 0c-2,0 -2.75,1.22 -4.07,1.22l-0.68 0c-0.12,0 -0.35,-0.31 -0.92,-0.31l-1.58 0c-0.35,0 -0.61,0.27 -0.61,0.61l0 2.03c-0.35,0 -0.62,0.26 -0.62,0.61l0 3.05c0,0.35 0.27,0.61 0.62,0.61l1.69 0c0.58,0 0.81,-0.3 0.92,-0.3l0.88 0c1.32,0 2.06,1.22 4.07,1.22l6.18 0c0.84,0 1.53,-0.69 1.53,-1.53l0 -3.05c0,-0.5 -0.23,-0.92 -0.61,-1.22l0 -1.42z"/>
 </g>
</svg>
