<?xml version="1.0" encoding="UTF-8"?>
<!DOCTYPE svg PUBLIC "-//W3C//DTD SVG 1.1//EN" "http://www.w3.org/Graphics/SVG/1.1/DTD/svg11.dtd">
<!-- Creator: CorelDRAW 2017 -->
<svg xmlns="http://www.w3.org/2000/svg" xml:space="preserve" width="32px" height="32px" version="1.1" style="shape-rendering:geometricPrecision; text-rendering:geometricPrecision; image-rendering:optimizeQuality; fill-rule:evenodd; clip-rule:evenodd"
viewBox="0 0 33.04 33.04"
 xmlns:xlink="http://www.w3.org/1999/xlink">
 <defs>
  <style type="text/css">
   <![CDATA[
    .fil0 {fill:#2B2A29;fill-rule:nonzero}
   ]]>
  </style>
 </defs>
 <g id="Ebene_x0020_1">
  <metadata id="CorelCorpID_0Corel-Layer"/>
  <path class="fil0" d="M1.34 0c-0.73,0 -1.34,0.61 -1.34,1.34l0 30.36c0,0.73 0.61,1.34 1.34,1.34l30.36 0c0.73,0 1.34,-0.61 1.34,-1.34l0 -30.36c0,-0.73 -0.61,-1.34 -1.34,-1.34l-30.36 0zm0.6 7.77l29.15 0 0 23.32 -29.15 0 0 -23.32zm0 -5.83l29.15 0 0 3.89 -29.15 0 0 -3.89zm21.74 13.61c0.46,-0.25 0.61,-0.61 0.61,-0.91 0,-0.55 -0.42,-0.98 -0.97,-0.98 -0.61,0 -1.43,0.91 -3.25,0.91 -3.22,0 -3.25,-1.94 -7.1,-1.94 -1.19,0 -2.4,0.34 -3.62,0.97 -0.45,0.25 -0.6,0.61 -0.6,0.91 0,0.55 0.42,0.98 0.97,0.98 0.6,0 1.42,-0.92 3.25,-0.92 3.21,0 3.24,1.95 7.1,1.95 1.19,0 2.4,-0.34 3.61,-0.97zm0 4.85c0.46,-0.24 0.61,-0.6 0.61,-0.91 0,-0.54 -0.42,-0.97 -0.97,-0.97 -0.61,0 -1.43,0.91 -3.25,0.91 -3.22,0 -3.25,-1.94 -7.1,-1.94 -1.19,0 -2.4,0.33 -3.62,0.97 -0.45,0.24 -0.6,0.61 -0.6,0.91 0,0.55 0.42,0.97 0.97,0.97 0.6,0 1.42,-0.91 3.25,-0.91 3.21,0 3.24,1.95 7.1,1.95 1.19,0 2.4,-0.34 3.61,-0.98zm0 4.86c0.46,-0.24 0.61,-0.6 0.61,-0.91 0,-0.54 -0.42,-0.97 -0.97,-0.97 -0.61,0 -1.43,0.91 -3.25,0.91 -3.22,0 -3.25,-1.94 -7.1,-1.94 -1.19,0 -2.4,0.33 -3.62,0.97 -0.45,0.24 -0.6,0.61 -0.6,0.91 0,0.55 0.42,0.97 0.97,0.97 0.6,0 1.42,-0.91 3.25,-0.91 3.21,0 3.24,1.95 7.1,1.95 1.19,0 2.4,-0.34 3.61,-0.98z"/>
 </g>
</svg>
