<?xml version="1.0" encoding="UTF-8"?>
<!DOCTYPE svg PUBLIC "-//W3C//DTD SVG 1.1//EN" "http://www.w3.org/Graphics/SVG/1.1/DTD/svg11.dtd">
<!-- Creator: CorelDRAW 2017 -->
<svg xmlns="http://www.w3.org/2000/svg" xml:space="preserve" width="32px" height="32px" version="1.1" style="shape-rendering:geometricPrecision; text-rendering:geometricPrecision; image-rendering:optimizeQuality; fill-rule:evenodd; clip-rule:evenodd"
viewBox="0 0 70.72 70.72"
 xmlns:xlink="http://www.w3.org/1999/xlink">
 <defs>
  <style type="text/css">
   <![CDATA[
    .fil0 {fill:#2B2A29;fill-rule:nonzero}
   ]]>
  </style>
 </defs>
 <g id="Ebene_x0020_1">
  <metadata id="CorelCorpID_0Corel-Layer"/>
  <path class="fil0" d="M2.86 0c-1.56,0 -2.86,1.3 -2.86,2.86l0 65c0,1.56 1.3,2.86 2.86,2.86l65 0c1.56,0 2.86,-1.3 2.86,-2.86l0 -65c0,-1.56 -1.3,-2.86 -2.86,-2.86l-65 0zm1.3 16.64l62.4 0 0 49.92 -62.4 0 0 -49.92zm0 -12.48l62.4 0 0 8.32 -62.4 0 0 -8.32zm43.94 58.5c3.71,0 6.89,-2.27 8.19,-5.52 3.64,-0.59 6.37,-3.77 6.37,-7.54 0,-2.8 -1.49,-5.14 -3.57,-6.5l-1.11 -7.8c-0.19,-0.98 -0.91,-1.76 -2.08,-1.76 -1.49,0 -2.27,1.3 -2.08,2.47l1.37 8.91c0.13,0.65 0.52,1.1 1.04,1.36 1.62,0.72 2.27,2.08 2.27,3.32 0,1.95 -1.56,3.51 -3.51,3.51l-0.26 0c-1.36,0 -1.95,1.1 -2.08,1.75 -0.45,2.08 -2.27,3.64 -4.55,3.64 -2.27,0 -4.09,-1.56 -4.55,-3.64 -0.13,-0.65 -0.71,-1.75 -2.08,-1.75l-0.26 0c-1.95,0 -3.51,-1.56 -3.51,-3.51 0,-1.24 0.65,-2.6 2.28,-3.32 0.52,-0.26 0.91,-0.71 1.04,-1.36l1.36 -8.91c0.2,-1.17 -0.58,-2.47 -2.08,-2.47 -1.17,0 -1.88,0.78 -2.08,1.76l-1.1 7.8c-2.08,1.36 -3.58,3.7 -3.58,6.5 0,3.77 2.73,6.95 6.37,7.54 1.3,3.25 4.49,5.52 8.19,5.52zm-2.08 -18.72c0,1.17 0.91,2.08 2.08,2.08 1.24,0 2.08,-0.97 2.08,-2.08l0 -8.32c0,-1.17 -0.91,-2.08 -2.08,-2.08 -1.23,0 -2.08,0.98 -2.08,2.08l0 8.32zm-14.36 -1.1c0.39,-0.33 0.65,-0.91 0.65,-1.5 0,-1.17 -0.91,-2.08 -2.08,-2.08 -1.56,0 -1.89,1.69 -5.01,1.69 -3.44,0 -4.94,-2.86 -10.14,-2.86 -2.4,0 -4.61,0.85 -6.37,2.28 -0.39,0.32 -0.65,0.91 -0.65,1.49 0,1.17 0.91,2.08 2.08,2.08 1.56,0 1.89,-1.69 4.94,-1.69 3.51,0 5.01,2.86 10.14,2.86 2.47,0 4.68,-0.84 6.44,-2.27zm0 -8.65c0.39,-0.32 0.65,-0.91 0.65,-1.49 0,-1.17 -0.91,-2.08 -2.08,-2.08 -1.56,0 -1.89,1.69 -5.01,1.69 -3.44,0 -4.94,-2.86 -10.14,-2.86 -2.4,0 -4.61,0.84 -6.37,2.27 -0.39,0.33 -0.65,0.91 -0.65,1.5 0,1.17 0.91,2.08 2.08,2.08 1.56,0 1.89,-1.69 4.94,-1.69 3.51,0 5.01,2.86 10.14,2.86 2.47,0 4.68,-0.85 6.44,-2.28zm0 -8.65c0.39,-0.32 0.65,-0.9 0.65,-1.49 0,-1.17 -0.91,-2.08 -2.08,-2.08 -1.56,0 -1.89,1.69 -5.01,1.69 -3.44,0 -4.94,-2.86 -10.14,-2.86 -2.4,0 -4.61,0.85 -6.37,2.28 -0.39,0.32 -0.65,0.91 -0.65,1.49 0,1.17 0.91,2.08 2.08,2.08 1.56,0 1.89,-1.69 4.94,-1.69 3.51,0 5.01,2.86 10.14,2.86 2.47,0 4.68,-0.84 6.44,-2.28z"/>
 </g>
</svg>