<?xml version="1.0" encoding="UTF-8"?>
<!DOCTYPE svg PUBLIC "-//W3C//DTD SVG 1.1//EN" "http://www.w3.org/Graphics/SVG/1.1/DTD/svg11.dtd">
<!-- Creator: CorelDRAW 2017 -->
<svg xmlns="http://www.w3.org/2000/svg" xml:space="preserve" width="32px" height="32px" version="1.1" style="shape-rendering:geometricPrecision; text-rendering:geometricPrecision; image-rendering:optimizeQuality; fill-rule:evenodd; clip-rule:evenodd"
viewBox="0 0 50.37 50.37"
 xmlns:xlink="http://www.w3.org/1999/xlink">
 <defs>
  <style type="text/css">
   <![CDATA[
    .fil0 {fill:#2B2A29;fill-rule:nonzero}
   ]]>
  </style>
 </defs>
 <g id="Ebene_x0020_1">
  <metadata id="CorelCorpID_0Corel-Layer"/>
  <path class="fil0" d="M2.04 0c-1.11,0 -2.04,0.93 -2.04,2.04l0 46.29c0,1.11 0.93,2.04 2.04,2.04l46.29 0c1.11,0 2.04,-0.93 2.04,-2.04l0 -46.29c0,-1.11 -0.93,-2.04 -2.04,-2.04l-46.29 0zm0.92 11.85l44.44 0 0 35.55 -44.44 0 0 -35.55zm0 -8.89l44.44 0 0 5.93 -44.44 0 0 -5.93zm34.07 24.63c0,-0.28 0.1,-0.51 0.28,-0.69 0.97,-0.98 1.71,-2.41 1.71,-4.17 0,-3.29 -2.63,-5.93 -5.92,-5.93 -1.58,0 -2.13,0.51 -2.59,0.51 -0.79,0 -0.61,-0.46 -1.86,-1.39 -0.92,-0.69 -2.17,-1.11 -3.47,-1.11 -1.29,0 -2.54,0.42 -3.47,1.11 -1.25,0.93 -1.06,1.39 -1.85,1.39 -0.46,0 -1.02,-0.51 -2.59,-0.51 -3.29,0 -5.93,2.64 -5.93,5.93 0,1.76 0.74,3.19 1.71,4.17 0.19,0.18 0.28,0.41 0.28,0.69l0 15.37c0,0.83 0.65,1.48 1.48,1.48l20.74 0c0.84,0 1.48,-0.65 1.48,-1.48l0 -15.37zm-20.74 5l0 -5c0,-1.07 -0.41,-2.04 -1.15,-2.78 -0.47,-0.46 -0.84,-1.29 -0.84,-2.08 0,-1.62 1.35,-2.96 2.97,-2.96 1.06,0 1.29,0.51 2.59,0.51 1.25,0 2.27,-0.56 3.05,-1.44 0.79,-0.88 1.67,-1.06 2.27,-1.06 0.6,0 1.48,0.18 2.27,1.06 0.79,0.88 1.81,1.44 3.06,1.44 1.29,0 1.52,-0.51 2.59,-0.51 1.62,0 2.96,1.34 2.96,2.96 0,0.79 -0.37,1.62 -0.83,2.08 -0.74,0.74 -1.16,1.71 -1.16,2.78l0 5 -17.78 0zm17.78 2.96l0 5.93 -17.78 0 0 -5.93 17.78 0z"/>
 </g>
</svg>
