<?xml version="1.0" encoding="utf-8"?>
<!-- Svg Vector Icons : http://www.onlinewebfonts.com/icon -->
<!DOCTYPE svg PUBLIC "-//W3C//DTD SVG 1.1//EN" "http://www.w3.org/Graphics/SVG/1.1/DTD/svg11.dtd">
<svg version="1.1" xmlns="http://www.w3.org/2000/svg" xmlns:xlink="http://www.w3.org/1999/xlink" x="0px" y="0px" viewBox="0 0 1000 1000" enable-background="new 0 0 1000 1000" xml:space="preserve">
<metadata> Svg Vector Icons : http://www.onlinewebfonts.com/icon </metadata>
<g><path d="M32.3,10v980V10z"/><path d="M54.5,10v980V10z"/><path d="M76.8,10v980V10z"/><path d="M99.1,10v980V10z"/><path d="M121.4,10v980V10z"/><path d="M143.6,10v980V10z"/><path d="M165.9,10v980V10z"/><path d="M188.2,10v980V10z"/><path d="M210.5,10v980V10z"/><path d="M232.7,10v980V10z"/><path d="M255,10v980V10z"/><path d="M277.3,10v980V10z"/><path d="M299.5,10v980V10z"/><path d="M321.8,10v980V10z"/><path d="M344.1,10v980V10z"/><path d="M366.4,10v980V10z"/><path d="M388.6,10v980V10z"/><path d="M410.9,10v980V10z"/><path d="M433.2,10v980V10z"/><path d="M455.5,10v980V10z"/><path d="M477.7,10v980V10z"/><path d="M500,10v980V10z"/><path d="M522.3,10v980V10z"/><path d="M544.5,10v980V10z"/><path d="M566.8,10v980V10z"/><path d="M589.1,10v980V10z"/><path d="M611.4,10v980V10z"/><path d="M633.6,10v980V10z"/><path d="M655.9,10v980V10z"/><path d="M678.2,10v980V10z"/><path d="M700.5,10v980V10z"/><path d="M722.7,10v980V10z"/><path d="M745,10v980V10z"/><path d="M767.3,10v980V10z"/><path d="M789.5,10v980V10z"/><path d="M811.8,10v980V10z"/><path d="M834.1,10v980V10z"/><path d="M856.4,10v980V10z"/><path d="M878.6,10v980V10z"/><path d="M900.9,10v980V10z"/><path d="M923.2,10v980V10z"/><path d="M945.5,10v980V10z"/><path d="M967.7,10v980V10z"/><path d="M10,32.3h980H10z"/><path d="M10,54.5h980H10z"/><path d="M10,76.8h980H10z"/><path d="M10,99.1h980H10z"/><path d="M10,121.4h980H10z"/><path d="M10,143.6h980H10z"/><path d="M10,165.9h980H10z"/><path d="M10,188.2h980H10z"/><path d="M10,210.5h980H10z"/><path d="M10,232.7h980H10z"/><path d="M10,255h980H10z"/><path d="M10,277.3h980H10z"/><path d="M10,299.5h980H10z"/><path d="M10,321.8h980H10z"/><path d="M10,344.1h980H10z"/><path d="M10,366.4h980H10z"/><path d="M10,388.6h980H10z"/><path d="M10,410.9h980H10z"/><path d="M10,433.2h980H10z"/><path d="M10,455.5h980H10z"/><path d="M10,477.7h980H10z"/><path d="M10,500h980H10z"/><path d="M10,522.3h980H10z"/><path d="M10,544.5h980H10z"/><path d="M10,566.8h980H10z"/><path d="M10,589.1h980H10z"/><path d="M10,611.4h980H10z"/><path d="M10,633.6h980H10z"/><path d="M10,655.9h980H10z"/><path d="M10,678.2h980H10z"/><path d="M10,700.5h980H10z"/><path d="M10,722.7h980H10z"/><path d="M10,745h980H10z"/><path d="M10,767.3h980H10z"/><path d="M10,789.5h980H10z"/><path d="M10,811.8h980H10z"/><path d="M10,834.1h980H10z"/><path d="M10,856.4h980H10z"/><path d="M10,878.6h980H10z"/><path d="M10,900.9h980H10z"/><path d="M10,923.2h980H10z"/><path d="M10,945.5h980H10z"/><path d="M10,967.7h980H10z"/><path d="M990,410.9v178.2l-109.3,36.4c-6.2,18.9-14.3,36.8-23.1,54.3l51.8,103.7l-126,126l-103.7-51.9c-17.5,8.8-35.4,16.8-54.2,23L589.1,990H410.9l-36.5-109.4c-18.8-6.2-36.7-14.2-54.1-23l-103.8,51.9l-126-126l51.9-103.7c-8.8-17.6-16.8-35.5-23.1-54.3L10,589.1V410.9l109.3-36.4c6.2-18.9,14.3-36.8,23.1-54.3L90.5,216.5l126-126l103.8,51.9c17.5-8.8,35.3-16.8,54.1-23L410.9,10h178.2l36.4,109.4c18.8,6.2,36.7,14.2,54.2,23l103.7-51.9l126,126l-51.8,103.7c8.8,17.6,16.8,35.5,23.1,54.3L990,410.9L990,410.9z M807.6,454.4c-7.7-51.8-28.3-99.3-58.1-139.3l49.6-82.8l-31.4-31.5l-82.9,49.7c-40.1-29.6-87.4-50-139.2-57.7l-23.4-93.7h-44.5l-23.4,93.7c-51.7,7.6-99.1,28-139.2,57.6l-82.9-49.7l-31.5,31.5l49.7,82.8c-29.8,40.1-50.4,87.5-58.1,139.4l-93.3,23.3v44.5l93.3,23.3c7.7,51.8,28.2,99.3,58,139.3l-49.7,82.8l31.5,31.5l82.9-49.7c40,29.6,87.4,50,139.2,57.7l23.5,93.7h44.5l23.4-93.7c51.8-7.7,99.1-28.1,139.2-57.7l82.8,49.7l31.5-31.5l-49.6-82.8c29.8-40,50.4-87.5,58.1-139.3l93.3-23.3v-44.5L807.6,454.4L807.6,454.4z M500,633.6c-73.8,0-133.6-59.8-133.6-133.6c0-73.8,59.8-133.6,133.6-133.6c73.8,0,133.6,59.8,133.6,133.6C633.6,573.8,573.8,633.6,500,633.6z M500,455.5c-24.6,0-44.5,19.9-44.5,44.5c0,24.6,20,44.5,44.5,44.5c24.6,0,44.5-19.9,44.5-44.5C544.5,475.4,524.6,455.5,500,455.5L500,455.5z"/></g>
</svg>